HIERARCHY
ROOT Junyuan_V1:Solving:Hips
{
	OFFSET 0.000000 0.000000 0.000000
	CHANNELS 6 Xposition Yposition Zposition Xrotation Yrotation Zrotation
	JOINT Junyuan_V1:Solving:Spine
	{
		OFFSET 0.000000 -11.180205 2.228564
		CHANNELS 6 Xposition Yposition Zposition Xrotation Yrotation Zrotation
		JOINT Junyuan_V1:Solving:Spine1
		{
			OFFSET 0.000000 -8.682996 1.531049
			CHANNELS 6 Xposition Yposition Zposition Xrotation Yrotation Zrotation
			JOINT Junyuan_V1:Solving:Spine2
			{
				OFFSET 0.000000 -8.783394 0.768450
				CHANNELS 6 Xposition Yposition Zposition Xrotation Yrotation Zrotation
				JOINT Junyuan_V1:Solving:Spine3
				{
					OFFSET 0.000000 -8.816944 0.000000
					CHANNELS 6 Xposition Yposition Zposition Xrotation Yrotation Zrotation
					JOINT Junyuan_V1:Solving:Neck
					{
						OFFSET 0.000000 -11.336071 -1.133605
						CHANNELS 6 Xposition Yposition Zposition Xrotation Yrotation Zrotation
						JOINT Junyuan_V1:Solving:Neck1
						{
							OFFSET 0.000000 -7.643246 -0.668695
							CHANNELS 6 Xposition Yposition Zposition Xrotation Yrotation Zrotation
							JOINT Junyuan_V1:Solving:Head
							{
								OFFSET 0.000000 -7.555870 -1.332303
								CHANNELS 6 Xposition Yposition Zposition Xrotation Yrotation Zrotation
								JOINT Junyuan_V1:Solving:HeadEnd
								{
									OFFSET 0.000000 -9.728081 0.000002
									CHANNELS 6 Xposition Yposition Zposition Xrotation Yrotation Zrotation
									End Site
									{
										OFFSET 0.000000 -9.728081 0.000002
									}
								}
							}
						}
					}
					JOINT Junyuan_V1:Solving:RightShoulder
					{
						OFFSET 0.000000 -8.097195 -5.270916
						CHANNELS 6 Xposition Yposition Zposition Xrotation Yrotation Zrotation
						JOINT Junyuan_V1:Solving:RightArm
						{
							OFFSET -20.762394 -0.000008 0.000000
							CHANNELS 6 Xposition Yposition Zposition Xrotation Yrotation Zrotation
							JOINT Junyuan_V1:Solving:RightForeArm
							{
								OFFSET -29.048946 -0.000008 0.000000
								CHANNELS 6 Xposition Yposition Zposition Xrotation Yrotation Zrotation
								JOINT Junyuan_V1:Solving:RightHand
								{
									OFFSET -22.031235 -0.000008 0.000000
									CHANNELS 6 Xposition Yposition Zposition Xrotation Yrotation Zrotation
									JOINT Junyuan_V1:Solving:RightHandThumb1
									{
										OFFSET -3.579254 2.890213 -2.661497
										CHANNELS 6 Xposition Yposition Zposition Xrotation Yrotation Zrotation
										End Site
										{
											OFFSET -5.229485 0.000000 -5.277840
										}
									}
									JOINT Junyuan_V1:Solving:RightHandMiddle1
									{
										OFFSET -9.544678 -0.000004 0.061184
										CHANNELS 6 Xposition Yposition Zposition Xrotation Yrotation Zrotation
										End Site
										{
											OFFSET -7.429878 -0.000004 0.000000
										}
									}
								}
							}
						}
					}
					JOINT Junyuan_V1:Solving:LeftShoulder
					{
						OFFSET 0.000000 -8.097195 -5.270916
						CHANNELS 6 Xposition Yposition Zposition Xrotation Yrotation Zrotation
						JOINT Junyuan_V1:Solving:LeftArm
						{
							OFFSET 20.762394 -0.000008 0.000000
							CHANNELS 6 Xposition Yposition Zposition Xrotation Yrotation Zrotation
							JOINT Junyuan_V1:Solving:LeftForeArm
							{
								OFFSET 29.048946 -0.000008 0.000000
								CHANNELS 6 Xposition Yposition Zposition Xrotation Yrotation Zrotation
								JOINT Junyuan_V1:Solving:LeftHand
								{
									OFFSET 22.031235 -0.000008 0.000000
									CHANNELS 6 Xposition Yposition Zposition Xrotation Yrotation Zrotation
									JOINT Junyuan_V1:Solving:LeftHandThumb1
									{
										OFFSET 3.579254 2.890213 -2.661497
										CHANNELS 6 Xposition Yposition Zposition Xrotation Yrotation Zrotation
										End Site
										{
											OFFSET 5.229485 0.000000 -5.277840
										}
									}
									JOINT Junyuan_V1:Solving:LeftHandMiddle1
									{
										OFFSET 9.544678 -0.000004 0.061184
										CHANNELS 6 Xposition Yposition Zposition Xrotation Yrotation Zrotation
										End Site
										{
											OFFSET 7.429878 -0.000004 0.000000
										}
									}
								}
							}
						}
					}
				}
			}
		}
	}
	JOINT Junyuan_V1:Solving:RightUpLeg
	{
		OFFSET -10.825166 0.000000 0.000000
		CHANNELS 6 Xposition Yposition Zposition Xrotation Yrotation Zrotation
		JOINT Junyuan_V1:Solving:RightLeg
		{
			OFFSET 0.000000 43.678444 -0.000006
			CHANNELS 6 Xposition Yposition Zposition Xrotation Yrotation Zrotation
			JOINT Junyuan_V1:Solving:RightFoot
			{
				OFFSET 0.000000 36.488441 -0.000006
				CHANNELS 6 Xposition Yposition Zposition Xrotation Yrotation Zrotation
				JOINT Junyuan_V1:Solving:RightForeFoot
				{
					OFFSET 0.000000 3.967834 -0.000000
					CHANNELS 6 Xposition Yposition Zposition Xrotation Yrotation Zrotation
					JOINT Junyuan_V1:Solving:RightToeBase
					{
						OFFSET 0.000000 0.000000 -15.539299
						CHANNELS 6 Xposition Yposition Zposition Xrotation Yrotation Zrotation
						JOINT Junyuan_V1:Solving:RightToeBaseEnd
						{
							OFFSET 0.000000 0.000000 -3.486985
							CHANNELS 6 Xposition Yposition Zposition Xrotation Yrotation Zrotation
							End Site
							{
								OFFSET 0.000000 -3.486992 0.000000
							}
						}
					}
				}
			}
		}
	}
	JOINT Junyuan_V1:Solving:LeftUpLeg
	{
		OFFSET 10.825166 0.000000 0.000000
		CHANNELS 6 Xposition Yposition Zposition Xrotation Yrotation Zrotation
		JOINT Junyuan_V1:Solving:LeftLeg
		{
			OFFSET 0.000000 43.678444 -0.000006
			CHANNELS 6 Xposition Yposition Zposition Xrotation Yrotation Zrotation
			JOINT Junyuan_V1:Solving:LeftFoot
			{
				OFFSET 0.000000 36.488441 -0.000006
				CHANNELS 6 Xposition Yposition Zposition Xrotation Yrotation Zrotation
				JOINT Junyuan_V1:Solving:LeftForeFoot
				{
					OFFSET 0.000000 3.967834 -0.000000
					CHANNELS 6 Xposition Yposition Zposition Xrotation Yrotation Zrotation
					JOINT Junyuan_V1:Solving:LeftToeBase
					{
						OFFSET 0.000000 0.000000 -15.539299
						CHANNELS 6 Xposition Yposition Zposition Xrotation Yrotation Zrotation
						JOINT Junyuan_V1:Solving:LeftToeBaseEnd
						{
							OFFSET 0.000000 0.000000 -3.974441
							CHANNELS 6 Xposition Yposition Zposition Xrotation Yrotation Zrotation
							End Site
							{
								OFFSET 0.000000 -3.974442 0.000000
							}
						}
					}
				}
			}
		}
	}
}
MOTION
Frames: 4
Frame Time: 0.041667
34.859844 -42.172882 -83.770912 57.387352 -174.725883 -4.314329 -0.000000 -11.180221 2.228569 12.327636 0.465311 0.297944 -0.000004 -8.682980 1.531049 16.133904 0.301841 0.414685 -0.000004 -8.783407 0.768440 25.373652 -5.212125 -10.948599 -0.000006 -8.816938 -0.000012 -7.982021 -0.736734 2.230802 0.000012 -11.336056 -1.133621 -38.867721 -0.432689 -7.646094 -0.000008 -7.643238 -0.668699 18.309697 -1.078390 6.901860 -0.000004 -7.555889 -1.332292 2.244942 0.059643 0.169610 0.000005 -9.728119 0.000009 -0.000000 0.000000 0.000001 0.000008 -8.097191 -5.270917 0.000003 7.501605 21.632789 -20.762388 -0.000018 -0.000007 -74.271375 -2.295113 -91.755067 -29.048937 -0.000001 -0.000007 -34.967710 -42.528060 -25.301831 -22.031219 -0.000011 -0.000011 -3.144776 5.439614 30.095214 -3.579272 2.890191 -2.661475 0.000004 0.000003 -0.000003 -9.544697 -0.000015 0.061206 -0.000005 0.000006 -0.000005 0.000008 -8.097187 -5.270918 -0.000001 -13.379306 -19.474575 20.762377 -0.000002 -0.000001 -70.116256 10.460551 104.207882 29.048916 -0.000012 -0.000014 -61.287158 33.183904 44.976499 22.031233 -0.000010 -0.000015 -0.700527 -0.962190 -36.057197 3.579256 2.890207 -2.661510 0.000001 -0.000002 -0.000008 9.544706 -0.000002 0.061162 0.000002 -0.000003 -0.000003 -10.825164 -0.000008 -0.000001 -63.365844 10.944605 10.309558 -0.000003 43.678452 -0.000005 37.706701 0.000000 0.000000 0.000007 36.488419 -0.000015 -0.203906 11.161326 -3.287348 0.000010 3.967827 0.000013 -0.000001 0.000001 0.000000 -0.000002 -0.000012 -15.539292 10.067972 0.000003 0.000001 -0.000006 -0.000022 -3.486991 0.000001 0.000002 -0.000001 10.825163 -0.000007 -0.000002 -64.508227 -22.690435 -20.618362 0.000007 43.678452 0.000003 31.031988 -0.000001 0.000004 -0.000002 36.488419 -0.000014 1.987257 3.407228 11.549848 -0.000000 3.967827 -0.000000 -0.000000 0.000002 -0.000000 -0.000002 -0.000005 -15.539307 -6.790854 0.000001 -0.000001 0.000000 -0.000008 -3.974435 -0.000000 0.000001 -0.000000 
35.096233 -42.185257 -83.948082 57.414516 -174.762589 -4.373965 0.000003 -11.180215 2.228557 12.396449 0.514187 0.278349 -0.000000 -8.683006 1.531051 16.061641 0.313971 0.376567 0.000002 -8.783414 0.768451 25.227816 -5.088716 -10.659360 0.000003 -8.816944 -0.000004 -7.866634 -0.708960 2.175489 -0.000005 -11.336043 -1.133574 -38.766579 -0.482123 -7.518338 0.000001 -7.643239 -0.668711 18.031920 -0.979008 6.693878 -0.000004 -7.555850 -1.332288 2.323869 0.056925 0.194663 0.000006 -9.728081 0.000014 -0.000003 -0.000000 -0.000003 -0.000001 -8.097168 -5.270879 0.000003 7.671629 21.486628 -20.762400 -0.000014 -0.000003 -73.979350 -1.983444 -91.567504 -29.048952 -0.000045 -0.000013 -35.084390 -43.091435 -25.634304 -22.031229 -0.000014 -0.000024 -3.192958 5.551714 29.968579 -3.579269 2.890195 -2.661490 0.000000 0.000002 0.000001 -9.544683 -0.000018 0.061185 0.000001 -0.000005 0.000003 -0.000003 -8.097172 -5.270881 -0.000003 -13.517313 -19.070674 20.762384 -0.000007 0.000006 -70.437808 10.668660 104.142100 29.048939 -0.000014 0.000001 -60.972020 33.758237 45.038189 22.031225 -0.000019 -0.000006 -0.872856 -1.187141 -36.327536 3.579280 2.890216 -2.661502 0.000001 -0.000002 -0.000006 9.544690 -0.000007 0.061188 0.000002 0.000003 -0.000003 -10.825161 -0.000022 0.000008 -63.028091 10.873896 10.110260 0.000001 43.678448 -0.000008 37.238547 0.000001 0.000000 0.000002 36.488430 -0.000010 -0.020081 11.371160 -3.070850 0.000008 3.967827 -0.000019 -0.000001 -0.000003 0.000000 -0.000007 -0.000004 -15.539299 9.895140 0.000001 -0.000001 -0.000002 -0.000007 -3.486989 0.000003 -0.000000 0.000001 10.825164 -0.000016 0.000002 -64.757727 -23.708627 -19.967348 0.000003 43.678444 0.000016 32.102316 0.000000 0.000002 -0.000005 36.488426 -0.000008 0.808392 3.416451 11.698613 -0.000007 3.967827 -0.000005 0.000000 0.000003 0.000000 0.000001 0.000000 -15.539305 -6.859566 0.000001 0.000001 -0.000004 -0.000008 -3.974449 -0.000000 0.000004 -0.000000 
35.263969 -42.186954 -84.107140 57.398690 -174.800182 -4.539062 -0.000012 -11.180165 2.228557 12.489811 0.506628 0.246856 -0.000003 -8.682997 1.531044 15.873298 0.325754 0.283914 -0.000002 -8.783394 0.768442 25.097417 -4.855853 -10.236675 -0.000003 -8.816948 0.000019 -7.737209 -0.641783 2.035137 -0.000002 -11.336086 -1.133583 -38.591450 -0.613608 -7.271619 0.000005 -7.643259 -0.668696 17.701110 -0.858377 6.425226 -0.000003 -7.555869 -1.332302 2.410199 0.053109 0.227637 -0.000001 -9.728096 0.000005 -0.000004 0.000001 -0.000001 -0.000002 -8.097210 -5.270893 -0.000001 7.802513 21.429688 -20.762411 -0.000026 -0.000002 -73.569641 -1.809541 -91.278006 -29.048937 -0.000022 -0.000036 -35.425145 -43.726454 -26.182258 -22.031218 -0.000024 -0.000017 -3.257770 5.671338 29.940950 -3.579282 2.890201 -2.661495 0.000002 0.000010 0.000005 -9.544707 -0.000018 0.061183 -0.000003 0.000011 0.000001 0.000000 -8.097206 -5.270894 -0.000002 -13.529536 -18.899596 20.762398 -0.000015 -0.000008 -70.577745 10.644584 104.083040 29.048954 -0.000020 0.000002 -61.268334 33.962655 45.540802 22.031229 -0.000009 -0.000001 -0.825275 -1.123563 -36.299652 3.579272 2.890214 -2.661509 0.000007 -0.000003 -0.000007 9.544703 -0.000009 0.061181 0.000000 -0.000004 0.000002 -10.825171 0.000039 -0.000009 -62.796404 10.693237 10.015016 -0.000003 43.678429 -0.000001 36.816133 0.000008 0.000000 -0.000003 36.488438 -0.000024 0.143726 11.576820 -2.960036 -0.000005 3.967819 0.000002 -0.000000 -0.000001 0.000000 -0.000016 -0.000013 -15.539302 9.791492 0.000003 -0.000000 0.000007 -0.000007 -3.486993 0.000001 0.000003 -0.000001 10.825164 0.000043 -0.000005 -64.897787 -24.779694 -19.128452 -0.000003 43.678452 -0.000006 33.025840 0.000005 0.000002 0.000002 36.488449 -0.000001 -0.288996 3.212336 11.931453 0.000009 3.967827 0.000013 0.000000 -0.000004 0.000001 -0.000005 -0.000008 -15.539292 -6.587388 -0.000002 0.000001 0.000002 -0.000008 -3.974444 -0.000000 0.000001 -0.000000 
35.443661 -42.242710 -84.272873 57.612830 -174.853457 -4.622394 -0.000007 -11.180184 2.228572 12.676521 0.577287 0.209010 0.000001 -8.682989 1.531050 15.550020 0.328058 0.255030 0.000000 -8.783394 0.768430 25.380264 -4.742012 -9.903107 -0.000008 -8.816950 -0.000001 -7.523406 -0.627511 1.850372 0.000011 -11.336086 -1.133614 -38.410286 -0.856355 -6.849642 -0.000002 -7.643221 -0.668690 17.092839 -0.696388 6.069038 -0.000000 -7.555840 -1.332303 2.556736 0.044098 0.284999 -0.000006 -9.728081 -0.000003 -0.000008 -0.000000 0.000002 -0.000006 -8.097187 -5.270917 0.000004 8.023417 21.531164 -20.762396 -0.000014 0.000001 -73.489161 -1.437242 -90.980565 -29.048983 -0.000017 -0.000019 -35.765558 -44.140077 -26.639807 -22.031239 -0.000023 0.000005 -3.285653 5.741370 29.849610 -3.579252 2.890193 -2.661489 -0.000004 -0.000002 0.000003 -9.544686 -0.000009 0.061181 0.000002 0.000002 -0.000002 -0.000002 -8.097187 -5.270917 -0.000001 -13.458753 -18.849022 20.762396 -0.000006 -0.000016 -70.843146 10.383683 104.018570 29.048944 -0.000021 -0.000026 -61.359175 34.341580 45.927848 22.031239 -0.000006 -0.000008 -0.842115 -1.144184 -36.354631 3.579273 2.890200 -2.661495 0.000004 0.000000 -0.000005 9.544693 -0.000017 0.061204 0.000001 -0.000009 -0.000000 -10.825171 0.000020 -0.000007 -62.284597 10.653784 9.943687 -0.000002 43.678448 0.000010 36.376003 0.000005 0.000000 -0.000013 36.488445 0.000004 0.222753 11.733023 -2.901694 0.000008 3.967819 -0.000003 -0.000001 -0.000002 -0.000000 0.000007 0.000000 -15.539310 9.722468 -0.000004 0.000001 0.000005 -0.000007 -3.486992 0.000001 0.000004 0.000000 10.825159 0.000015 -0.000005 -64.697444 -25.822860 -18.242998 0.000004 43.678444 -0.000005 33.779121 0.000001 0.000004 -0.000006 36.488415 -0.000017 -1.357691 3.013015 12.050132 -0.000003 3.967827 0.000000 0.000000 -0.000000 -0.000000 -0.000003 -0.000010 -15.539296 -6.203386 0.000003 0.000001 -0.000002 -0.000007 -3.974431 0.000000 0.000004 -0.000000 
